HIERARCHY
ROOT Hips
{
	OFFSET 0.00000 0.00000 0.00000
	CHANNELS 6 Xposition Yposition Zposition Zrotation Yrotation Xrotation 
	JOINT LHipJoint
	{
		OFFSET 0 0 0
		CHANNELS 3 Zrotation Yrotation Xrotation
		JOINT LeftHip
		{
			OFFSET 1.38691 -1.89057 0.78360
			CHANNELS 3 Zrotation Yrotation Xrotation
			JOINT LeftKnee
			{
				OFFSET 2.59731 -7.13606 0.00000
				CHANNELS 3 Zrotation Yrotation Xrotation
				JOINT LeftAnkle
				{
					OFFSET 2.70078 -7.42033 0.00000
					CHANNELS 3 Zrotation Yrotation Xrotation
					JOINT LeftToe
					{
						OFFSET 0.16751 -0.46024 2.68862
						CHANNELS 3 Zrotation Yrotation Xrotation
						End Site
						{
							OFFSET 0.00000 -0.00000 1.37057
						}
					}
				}
			}
		}
	}
	JOINT RHipJoint
	{
		OFFSET 0 0 0
		CHANNELS 3 Zrotation Yrotation Xrotation
		JOINT RightHip
		{
			OFFSET -1.38190 -1.89056 0.78359
			CHANNELS 3 Zrotation Yrotation Xrotation
			JOINT RightKnee
			{
				OFFSET -2.57785 -7.08258 0.00000
				CHANNELS 3 Zrotation Yrotation Xrotation
				JOINT RightAnkle
				{
					OFFSET -2.77908 -7.63547 0.00000
					CHANNELS 3 Zrotation Yrotation Xrotation
					JOINT RightToe
					{
						OFFSET -0.17921 -0.49237 2.62360
						CHANNELS 3 Zrotation Yrotation Xrotation
						End Site
						{
							OFFSET -0.00000 -0.00000 1.34085
						}
					}
				}
			}
		}
	}
	JOINT lowerback
	{
		OFFSET 0 0 0
		CHANNELS 3 Zrotation Yrotation Xrotation
		JOINT Chest
		{
			OFFSET -0.10749 2.04110 -0.22549
			CHANNELS 3 Zrotation Yrotation Xrotation
			JOINT Chest2
			{
				OFFSET 0.01213 2.05840 0.00691
				CHANNELS 3 Zrotation Yrotation Xrotation
				JOINT lowerneck
				{
					OFFSET 0 0 0
					CHANNELS 3 Zrotation Yrotation Xrotation
					JOINT Neck
					{
						OFFSET 0.06585 1.81215 0.35449
						CHANNELS 3 Zrotation Yrotation Xrotation
						JOINT Head
						{
							OFFSET -0.04315 1.87555 -0.27307
							CHANNELS 3 Zrotation Yrotation Xrotation
							End Site
							{
								OFFSET -0.01775 1.89740 -0.13294
							}
						}
					}
				}
				JOINT LeftCollar
				{
					OFFSET 0 0 0
					CHANNELS 3 Zrotation Yrotation Xrotation
					JOINT LeftShoulder
					{
						OFFSET 2.98012 1.63606 0.28888
CHANNELS 3 Zrotation Xrotation Yrotation
						JOINT LeftElbow
						{
OFFSET 0 -5.598640 -0.000000
CHANNELS 3 Zrotation Xrotation Yrotation
							JOINT LeftWrist
							{
OFFSET 0 -3.595420 -0.000000
CHANNELS 3 Zrotation Xrotation Yrotation
								JOINT lhand
								{
									OFFSET 0 0 0
CHANNELS 3 Zrotation Xrotation Yrotation
									JOINT LFingers
									{
OFFSET 0 -0.572010 -0.000000
CHANNELS 3 Zrotation Xrotation Yrotation
										End Site
										{
OFFSET 0 -0.461170 -0.000000
										}
									}
								}
								JOINT LThumb
								{
OFFSET 0 0.000000 0.000000
CHANNELS 3 Zrotation Xrotation Yrotation
									End Site
									{
OFFSET 0 -0.468210 0.468210
									}
								}
							}
						}
					}
				}
				JOINT RightCollar
				{
					OFFSET 0 0 0
					CHANNELS 3 Zrotation Yrotation Xrotation
					JOINT RightShoulder
					{
						OFFSET -3.08694 1.53706 0.36335
CHANNELS 3 Zrotation Xrotation Yrotation
						JOINT RightElbow
						{
OFFSET 0 -5.809400 -0.000000
CHANNELS 3 Zrotation Xrotation Yrotation
							JOINT RightWrist
							{
OFFSET 0 -3.669530 -0.000000
CHANNELS 3 Zrotation Xrotation Yrotation
								JOINT rhand
								{
									OFFSET 0 0 0
CHANNELS 3 Zrotation Xrotation Yrotation
									JOINT RFingers
									{
OFFSET 0 -0.578430 -0.000000
CHANNELS 3 Zrotation Xrotation Yrotation
										End Site
										{
OFFSET 0 -0.466350 -0.000000
										}
									}
								}
								JOINT RThumb
								{
OFFSET 0 0.000000 0.000000
CHANNELS 3 Zrotation Xrotation Yrotation
									End Site
									{
OFFSET 0 -0.473470 0.473470
									}
								}
							}
						}
					}
				}
			}
		}
	}
}
MOTION
Frames: 7
Frame Time: 0.008333333333333333
0.515800 18.604000 -38.210600 -18.774400 66.823100 -17.289000 0.000000 0.000000 0.000000 -7.685800 -7.664200 -7.982800 6.051800 14.478400 45.189300 0.907200 -32.620100 -27.486300 1.167200 6.858100 19.295500 0.000000 0.000000 0.000000 25.974800 -3.641200 -28.755000 -7.961700 -16.091000 52.424700 -4.235000 8.297900 -37.591600 -0.870300 5.948200 -16.634100 -3.458000 -3.603900 14.004900 -0.263200 -5.306200 0.800300 2.686400 -2.471900 -6.698400 -0.716000 -4.190600 -16.546300 6.401100 -8.025500 41.815000 1.696100 -2.046300 19.187000 -0.000000 0.000000 0.000000 16.741500 -23.967800 -46.351600 55.415000 -54.958900 30.555500 35.272100 -17.768300 -9.922500 0.000000 0.000000 0.000000 -7.125000 0.000000 0.000000 7.437600 41.956200 0.561900 -0.000000 0.000000 0.000000 -32.647100 0.512100 53.955900 -59.205000 -56.094300 -33.680400 -45.400800 -19.871700 -4.776600 0.000000 0.000000 0.000000 7.125000 0.000000 -0.000000 -13.737100 23.226900 -7.414400
0.532107 18.633382 -37.930293 -19.976357 67.449384 -18.321200 0.000000 0.000000 0.000000 -7.337326 -8.138210 -8.253925 6.119379 14.542894 45.458662 1.543474 -30.585155 -29.291255 0.977096 6.281693 17.607487 0.000000 0.000000 0.000000 26.264436 -3.753587 -28.669130 -7.858201 -16.013798 52.050002 -4.222219 7.546668 -37.608274 -0.962928 6.245182 -17.498307 -3.661913 -3.655760 13.712693 -0.173511 -5.392217 0.751599 2.888477 -2.512080 -6.554280 -0.806791 -4.314961 -16.467262 6.445027 -8.195256 41.809932 1.700434 -2.120711 19.183033 0.000000 0.000000 0.000000 16.400445 -23.846378 -45.960228 54.412990 -54.624823 29.737350 35.460955 -17.655105 -10.083956 0.000000 0.000000 0.000000 -7.125000 0.000000 0.000000 7.614922 42.172233 0.534281 0.000000 0.000000 0.000000 -32.599207 1.208681 54.203005 -60.463591 -56.428818 -34.727806 -45.355404 -19.326291 -4.383024 0.000000 0.000000 0.000000 7.125000 0.000000 0.000000 -13.785434 23.772529 -7.262787
0.548837 18.661733 -37.650502 -21.011637 68.085144 -19.196951 0.000000 0.000000 0.000000 -7.076248 -8.576943 -8.535887 6.182221 14.602510 45.708462 2.060639 -28.620437 -30.719323 0.801442 5.698436 15.916002 0.000000 0.000000 0.000000 26.428443 -3.785944 -28.514770 -7.740394 -15.924587 51.621497 -4.216756 7.309868 -37.606372 -0.966470 6.258302 -17.535933 -3.938539 -3.688198 13.419970 -0.107652 -5.463644 0.703273 3.102328 -2.543676 -6.405422 -0.922117 -4.462026 -16.387285 6.510955 -8.400853 41.788585 1.711758 -2.210884 19.175220 0.000000 0.000000 0.000000 16.057654 -23.727629 -45.610607 53.440065 -54.289058 28.945798 35.727636 -17.499501 -10.351713 0.000000 0.000000 0.000000 -7.125000 0.000000 0.000000 7.868382 42.526750 0.481939 0.000000 0.000000 0.000000 -32.519930 1.919335 54.363934 -61.575443 -56.712577 -35.655634 -45.321361 -19.040209 -4.266320 0.000000 0.000000 0.000000 7.125000 0.000000 0.000000 -13.785074 23.936487 -7.209032
0.565316 18.690741 -37.371471 -22.049309 68.671417 -20.064729 0.000000 0.000000 0.000000 -6.806779 -8.952596 -8.841761 6.241566 14.658387 45.943568 2.476355 -26.709753 -31.830628 0.626977 5.045253 14.042038 0.000000 0.000000 0.000000 26.576336 -3.688797 -28.297499 -7.614776 -15.828213 51.162586 -4.225576 7.292438 -37.650111 -0.927712 6.135895 -17.179131 -4.221644 -3.696918 13.125203 -0.040349 -5.503455 0.651860 3.315286 -2.559741 -6.259891 -1.044340 -4.611389 -16.292907 6.590126 -8.611108 41.742385 1.729032 -2.303519 19.150016 0.000000 0.000000 0.000000 15.702659 -23.606728 -45.291168 52.481052 -53.946328 28.168544 35.999065 -17.334953 -10.650352 0.000000 0.000000 0.000000 -7.125000 0.000000 0.000000 8.128343 42.919949 0.419885 0.000000 0.000000 0.000000 -32.415990 2.659746 54.463799 -62.605608 -56.963481 -36.517838 -45.271358 -18.918298 -4.311697 0.000000 0.000000 0.000000 7.125000 0.000000 0.000000 -13.740113 23.879409 -7.202807
0.580521 18.722988 -37.093661 -23.339045 69.114722 -21.142472 0.000000 0.000000 0.000000 -6.386538 -9.215862 -9.193981 6.298788 14.711716 46.169224 2.803306 -24.836337 -32.672137 0.434302 4.219904 11.697550 0.000000 0.000000 0.000000 26.867515 -3.372129 -28.017265 -7.489901 -15.730884 50.703781 -4.260835 7.088084 -37.840214 -0.910082 6.078893 -17.013341 -4.414392 -3.672457 12.825871 0.065868 -5.482373 0.591847 3.508548 -2.547988 -6.130021 -1.148353 -4.733252 -16.162376 6.671368 -8.780644 41.655414 1.751510 -2.379325 19.085154 0.000000 0.000000 0.000000 15.318412 -23.476270 -44.988824 51.515402 -53.587937 27.389325 36.168087 -17.209638 -10.872702 0.000000 0.000000 0.000000 -7.125000 0.000000 0.000000 8.292957 43.209732 0.368981 0.000000 0.000000 0.000000 -32.294054 3.456961 54.531599 -63.639278 -57.203608 -37.385350 -45.163011 -18.841830 -4.371197 0.000000 0.000000 0.000000 7.125000 0.000000 0.000000 -13.650717 23.809111 -7.176142
0.595390 18.758667 -36.820561 -24.026299 69.550425 -21.678620 0.000000 0.000000 0.000000 -6.208502 -9.349145 -9.504153 6.345515 14.754953 46.353100 3.007070 -23.254912 -33.151551 0.310790 3.559119 9.842045 0.000000 0.000000 0.000000 26.896979 -3.104036 -27.799130 -7.377674 -15.641562 50.288237 -4.241733 7.112344 -37.747208 -0.839505 5.842055 -16.327487 -4.749300 -3.603727 12.621604 0.110929 -5.429603 0.528806 3.719505 -2.514975 -6.052561 -1.341040 -4.877116 -16.020005 6.836843 -8.985501 41.484142 1.819804 -2.476055 18.981877 0.000000 0.000000 0.000000 14.909339 -23.292730 -44.814176 50.479648 -53.183663 26.558638 36.462583 -17.262544 -10.803063 0.000000 0.000000 0.000000 -7.125000 0.000000 0.000000 8.563267 43.163525 0.391410 0.000000 0.000000 0.000000 -32.091988 4.298917 54.519404 -64.353911 -57.361722 -37.986708 -44.970633 -18.507281 -4.159966 0.000000 0.000000 0.000000 7.125000 0.000000 0.000000 -13.555536 24.117459 -7.024003
0.610473 18.792623 -36.547038 -24.831321 70.008975 -22.328431 0.000000 0.000000 0.000000 -6.013760 -9.525770 -9.809811 6.390056 14.795919 46.527723 3.180216 -21.719358 -33.563342 0.202712 2.853808 7.874850 0.000000 0.000000 0.000000 26.948892 -2.878042 -27.602093 -7.269624 -15.554481 49.886318 -4.225582 7.116043 -37.670411 -0.780156 5.637873 -15.737595 -5.047360 -3.559243 12.415433 0.143327 -5.403252 0.467727 3.900802 -2.496223 -5.974374 -1.511562 -5.015259 -15.882900 6.993269 -9.186839 41.330833 1.881103 -2.568433 18.890307 0.000000 0.000000 0.000000 14.544465 -23.110467 -44.581513 49.481533 -52.780878 25.761639 36.714382 -17.240160 -10.787677 0.000000 0.000000 0.000000 -7.125000 0.000000 0.000000 8.796558 43.177756 0.398697 0.000000 0.000000 0.000000 -31.870875 5.109053 54.534082 -65.099418 -57.520901 -38.615118 -44.810703 -18.244642 -4.031418 0.000000 0.000000 0.000000 7.125000 0.000000 0.000000 -13.466666 24.308998 -6.913665
